<?xml version="1.0" encoding="UTF-8" standalone="no"?>
<!DOCTYPE svg PUBLIC "-//W3C//DTD SVG 20010904//EN"
 "http://www.w3.org/TR/2001/REC-SVG-20010904/DTD/svg10.dtd">
<svg version="1.0" xmlns="http://www.w3.org/2000/svg"
 width="230.000000pt" height="231.000000pt" viewBox="0 0 230.000000 231.000000"
 preserveAspectRatio="xMidYMid meet">
<metadata>
Created by POTRACE 1.0.0, written by Peter Selinger 2001-2017
</metadata>
<g transform="translate(0.000000,231.000000) scale(0.100000,-0.100000)"
>
<path d="M548 1839 l3 -399 -220 0 c-122 0 -221 -4 -221 -8 0 -4 19 -27 43
-50 41 -40 45 -42 73 -31 16 6 91 14 167 17 123 4 137 3 137 -12 0 -29 -79
-255 -135 -384 -63 -144 -137 -281 -232 -426 -58 -89 -71 -126 -44 -126 14 0
142 141 203 223 65 87 127 185 185 292 l43 80 0 -487 c0 -269 3 -488 7 -488 3
0 32 17 63 37 l57 37 -5 533 c-3 309 -1 533 4 533 15 0 105 -166 142 -259 51
-131 51 -131 67 -138 22 -8 63 33 76 78 29 96 -21 180 -191 320 l-101 84 3 50
3 50 174 5 174 5 -63 73 -63 73 -41 -40 c-41 -40 -43 -41 -114 -41 l-72 0 0
321 0 321 30 38 c21 26 26 39 17 43 -6 3 -48 21 -92 40 l-80 34 3 -398z"/>
<path d="M1529 2055 l3 -185 -266 0 c-177 0 -265 3 -261 10 3 6 22 18 41 28
l35 18 -81 58 c-44 32 -82 57 -84 55 -1 -2 -22 -60 -45 -129 -23 -69 -69 -180
-101 -248 -47 -98 -56 -124 -44 -129 8 -3 23 6 37 23 42 52 172 219 194 249
l22 30 50 -27 c46 -25 55 -27 102 -18 28 6 101 10 160 10 l109 0 -39 -78 c-85
-168 -235 -363 -365 -472 -55 -47 -63 -57 -51 -69 11 -11 22 -8 72 22 83 51
213 158 273 225 55 60 140 177 203 276 l38 61 -3 -278 c-2 -152 -1 -277 2
-277 3 0 33 12 67 27 l63 28 -3 269 c-1 177 2 270 8 273 6 2 30 -36 54 -84 56
-115 154 -263 220 -335 54 -59 177 -158 197 -158 6 0 16 11 22 25 13 28 52 50
105 60 39 8 51 32 20 41 -183 55 -344 173 -496 364 l-60 75 256 5 256 5 -67
87 -67 88 -55 -55 -56 -55 -172 0 -172 0 0 105 c0 103 0 105 31 140 19 21 28
40 23 44 -6 6 -172 81 -178 81 -1 0 1 -83 3 -185z"/>
<path d="M156 1981 c-3 -5 12 -46 33 -92 44 -93 91 -227 91 -257 0 -34 21 -82
41 -93 44 -23 101 56 102 141 1 66 -34 120 -144 224 -87 82 -111 97 -123 77z"/>
<path d="M1915 1200 l-39 -40 -287 0 -286 0 -66 30 c-37 17 -68 30 -69 30 -2
0 -3 -212 -3 -470 0 -259 1 -470 2 -470 1 0 29 12 62 26 54 24 61 30 61 55 l0
29 295 0 295 0 0 -41 c0 -45 1 -45 85 -8 l42 19 -5 348 -5 349 37 28 c20 15
36 33 36 39 0 11 -100 116 -111 116 -3 0 -23 -18 -44 -40z m-35 -250 l0 -140
-295 0 -295 0 0 140 0 140 295 0 295 0 0 -140z m0 -350 l0 -140 -295 0 -295 0
0 140 0 140 295 0 295 0 0 -140z"/>
<path d="M2095 242 l-60 -47 -559 -5 -559 -5 44 -48 c44 -47 44 -48 79 -35 26
9 197 14 649 18 l614 5 -69 82 c-38 45 -71 82 -74 82 -3 1 -32 -20 -65 -47z"/>
</g>
</svg>
