<?xml version="1.0" encoding="UTF-8" standalone="no"?>
<!DOCTYPE svg PUBLIC "-//W3C//DTD SVG 20010904//EN"
 "http://www.w3.org/TR/2001/REC-SVG-20010904/DTD/svg10.dtd">
<svg version="1.0" xmlns="http://www.w3.org/2000/svg"
 width="45.000000pt" height="42.000000pt" viewBox="0 0 45.000000 42.000000"
 preserveAspectRatio="xMidYMid meet">
<metadata>
Created by POTRACE 1.0.0, written by Peter Selinger 2001-2017
</metadata>
<g transform="translate(0.000000,42.000000) scale(0.100000,-0.100000)"
>
<path d="M98 257 c-3 -121 -5 -137 -30 -185 -31 -60 -20 -70 17 -14 26 39 45
117 45 183 l0 39 114 0 c70 0 117 -4 121 -11 14 -22 27 -1 29 49 3 53 -7 73
-27 53 -18 -18 -218 -14 -244 4 l-21 15 -4 -133z m262 63 l0 -30 -115 0 -115
0 0 30 0 30 115 0 115 0 0 -30z"/>
<path d="M175 198 c-9 -76 -27 -124 -62 -160 -15 -16 -22 -28 -16 -28 22 0 73
61 85 102 l12 40 22 -26 c27 -31 34 -32 34 -7 0 10 -12 26 -26 36 -22 14 -25
23 -22 57 5 70 -19 57 -27 -14z"/>
<path d="M290 223 c0 -61 -19 -112 -57 -154 -20 -22 -34 -42 -31 -44 11 -11
77 59 93 97 18 42 18 43 25 16 4 -14 18 -45 31 -67 18 -33 27 -40 43 -35 27 8
34 16 19 21 -51 18 -100 112 -91 174 4 23 1 29 -14 29 -14 0 -18 -8 -18 -37z"/>
</g>
</svg>
