<?xml version="1.0" encoding="UTF-8" standalone="no"?>
<!DOCTYPE svg PUBLIC "-//W3C//DTD SVG 20010904//EN"
 "http://www.w3.org/TR/2001/REC-SVG-20010904/DTD/svg10.dtd">
<svg version="1.0" xmlns="http://www.w3.org/2000/svg"
 width="37.000000pt" height="40.000000pt" viewBox="0 0 37.000000 40.000000"
 preserveAspectRatio="xMidYMid meet">
<metadata>
Created by POTRACE 1.0.0, written by Peter Selinger 2001-2017
</metadata>
<g transform="translate(0.000000,40.000000) scale(0.100000,-0.100000)"
>
<path d="M162 373 c37 -43 35 -46 -41 -41 -53 3 -71 0 -71 -9 0 -7 -9 -21 -20
-30 -25 -22 -25 -33 0 -33 13 0 24 10 30 25 9 25 10 25 137 25 99 0 124 -3
115 -12 -7 -7 -12 -19 -11 -28 0 -10 2 -11 6 -2 3 7 18 19 35 28 47 24 21 39
-62 35 -59 -2 -69 0 -64 12 6 16 -30 47 -55 47 -12 0 -12 -3 1 -17z"/>
<path d="M120 270 c-7 -17 -30 -55 -51 -85 -46 -66 -35 -73 17 -10 35 43 39
45 90 45 30 0 54 -4 54 -8 0 -14 -56 -96 -81 -119 -13 -11 -51 -37 -84 -57
-33 -20 -54 -36 -46 -36 31 0 136 67 180 116 l49 53 6 -33 c9 -47 62 -126 84
-126 33 0 31 11 -12 53 -48 49 -76 118 -58 147 14 22 -7 47 -25 29 -5 -5 -34
-9 -62 -7 l-52 3 21 23 c11 12 18 27 15 32 -12 19 -33 10 -45 -20z"/>
</g>
</svg>
