<?xml version="1.0" encoding="UTF-8" standalone="no"?>
<!DOCTYPE svg PUBLIC "-//W3C//DTD SVG 20010904//EN"
 "http://www.w3.org/TR/2001/REC-SVG-20010904/DTD/svg10.dtd">
<svg version="1.0" xmlns="http://www.w3.org/2000/svg"
 width="365.000000pt" height="354.000000pt" viewBox="0 0 365.000000 354.000000"
 preserveAspectRatio="xMidYMid meet">
<metadata>
Created by POTRACE 1.0.0, written by Peter Selinger 2001-2017
</metadata>
<g transform="translate(0.000000,354.000000) scale(0.100000,-0.100000)"
>
<path d="M1890 2595 c0 -421 2 -765 5 -765 3 0 52 24 110 52 96 48 105 55 105
80 l0 28 260 0 260 0 0 -70 c0 -39 4 -70 10 -70 5 0 57 24 115 52 l105 53 0
571 0 572 45 33 c24 19 45 37 45 40 0 3 -45 43 -100 88 l-101 83 -56 -46 -55
-46 -264 0 -264 0 -110 55 -110 55 0 -765z m740 420 l0 -155 -260 0 -260 0 0
155 0 155 260 0 260 0 0 -155z m0 -395 l0 -160 -260 0 -260 0 0 160 0 160 260
0 260 0 0 -160z m0 -395 l0 -155 -260 0 -260 0 0 155 0 155 260 0 260 0 0
-155z"/>
<path d="M650 2448 c0 -538 -4 -939 -10 -1008 -31 -339 -103 -619 -221 -855
-43 -86 -167 -274 -224 -341 -29 -34 -33 -43 -22 -53 32 -26 258 187 357 337
108 162 212 412 262 629 12 57 25 103 28 103 9 0 138 -232 181 -325 23 -49 51
-130 64 -179 26 -105 58 -152 109 -162 43 -8 64 -1 99 31 22 21 27 34 27 74 0
123 -221 445 -411 598 -44 36 -57 53 -54 68 19 87 37 323 42 547 l6 267 61 50
c34 27 129 112 211 190 138 129 153 141 188 141 42 0 41 -1 27 35 -9 25 -36
51 -142 144 l-36 31 -64 -97 c-36 -54 -106 -158 -156 -232 l-92 -134 0 465 0
465 28 12 27 13 -28 22 c-20 16 -57 27 -135 39 -59 10 -110 17 -114 17 -5 0
-8 -402 -8 -892z"/>
<path d="M1390 2273 l0 -843 109 55 c96 48 110 58 113 82 l3 28 208 3 207 2 0
-180 0 -180 -335 0 -335 0 0 -35 0 -34 93 -3 92 -3 3 -45 c6 -76 -18 -290 -43
-391 -53 -210 -123 -347 -265 -518 -112 -134 15 -90 175 61 195 184 308 440
347 786 l12 112 128 0 128 0 0 -515 c0 -283 2 -515 5 -515 3 0 55 25 115 55
l110 55 0 639 0 638 45 35 45 35 -100 82 c-54 44 -103 81 -107 81 -4 0 -33
-20 -63 -45 l-55 -45 -205 2 -205 3 -3 665 -2 666 31 18 31 19 -28 18 c-16 10
-80 26 -141 37 l-113 19 0 -844z"/>
<path d="M3100 2378 l0 -738 -195 0 -195 0 -110 55 -110 55 0 -805 c0 -443 2
-805 5 -805 3 0 55 25 115 55 l110 55 0 460 0 461 153 -3 152 -3 3 -513 c1
-281 4 -512 7 -512 3 0 52 24 110 52 l105 52 2 461 3 460 123 3 122 3 0 33 c0
30 -11 44 -95 120 l-96 86 -55 -60 c-31 -33 -65 -71 -76 -85 l-19 -25 -220 0
-219 0 0 160 0 160 190 0 190 0 0 -75 0 -75 110 55 110 55 0 743 0 743 31 18
31 19 -28 18 c-16 10 -80 26 -141 37 l-113 19 0 -739z"/>
<path d="M366 2618 c-3 -18 -7 -100 -11 -183 -10 -266 -39 -411 -115 -570 -66
-137 -69 -162 -28 -208 27 -30 41 -37 73 -39 80 -4 128 64 171 238 25 104 30
371 10 509 -22 150 -58 279 -79 283 -11 2 -17 -6 -21 -30z"/>
</g>
</svg>
